<svg width="120" height="12" viewBox="0 0 120 12" fill="none" xmlns="http://www.w3.org/2000/svg">
<path fill-rule="evenodd" clip-rule="evenodd" d="M4.36704 6.72695H2.97613L2.53977 8.88088H1.71614L2.1525 6.72695H0.865234V5.99146H2.30523L2.67614 4.16324H1.27978V3.41725H2.82886L3.27613 1.2318H4.09976L3.65249 3.41725H5.0434L5.49067 1.2318H6.3143L5.86703 3.41725H6.95248V4.16324H5.71975L5.34885 5.99146H6.54339V6.72695H5.19612L4.75976 8.88088H3.93067L4.36704 6.72695ZM3.12886 5.99146H4.51976L4.89067 4.16324H3.49977L3.12886 5.99146ZM9.55973 8.88088H8.47974V1.2318H9.55973V8.88088ZM12.3415 3.1966L12.4179 4.04242C12.6143 3.74121 12.8606 3.50743 13.157 3.34107C13.4534 3.17471 13.7906 3.09153 14.1688 3.09153C14.8052 3.09153 15.2979 3.27102 15.647 3.63001C15.9961 3.989 16.1706 4.54324 16.1706 5.29275V8.88088H15.0961V5.31376C15.0961 4.81293 14.9933 4.45744 14.7879 4.2473C14.5824 4.03716 14.2688 3.93209 13.847 3.93209C13.5379 3.93209 13.2643 4.00389 13.0261 4.14748C12.7879 4.29108 12.5979 4.48721 12.4561 4.73588V8.88088H11.3815V3.1966H12.3415ZM17.4851 6.14381C17.4851 5.2297 17.6879 4.49247 18.0933 3.93209C18.4988 3.37172 19.067 3.09153 19.7979 3.09153C20.1433 3.09153 20.4497 3.15282 20.7169 3.2754C20.9842 3.39798 21.2124 3.5766 21.4015 3.81126V0.685432H22.476V8.88088H21.5979L21.4724 8.18217C21.2797 8.44835 21.0433 8.64973 20.7633 8.78632C20.4833 8.92291 20.1579 8.99121 19.787 8.99121C19.067 8.99121 18.5033 8.73992 18.0961 8.23733C17.6888 7.73474 17.4851 7.07368 17.4851 6.25413V6.14381ZM18.5597 6.25413C18.5597 6.82852 18.6815 7.2882 18.9251 7.63318C19.1688 7.97816 19.547 8.15065 20.0597 8.15065C20.3797 8.15065 20.6488 8.0806 20.8669 7.94051C21.0851 7.80041 21.2633 7.60429 21.4015 7.35212V4.6991C21.2633 4.46444 21.0842 4.27795 20.8642 4.1396C20.6442 4.00126 20.3797 3.93209 20.0706 3.93209C19.5542 3.93209 19.1733 4.13697 18.9279 4.54675C18.6824 4.95652 18.5597 5.48887 18.5597 6.14381V6.25413ZM25.2415 8.88088H24.1669V3.1966H25.2415V8.88088ZM25.2415 1.74138H24.1669V0.685432H25.2415V1.74138ZM30.5214 8.88088C30.4851 8.70927 30.4569 8.55779 30.4369 8.42646C30.4169 8.29512 30.4051 8.16291 30.4014 8.02982C30.2014 8.303 29.9405 8.53152 29.6187 8.7154C29.2969 8.89927 28.9505 8.99121 28.5796 8.99121C27.9651 8.99121 27.4969 8.83973 27.1751 8.53678C26.8533 8.23383 26.6924 7.81618 26.6924 7.28382C26.6924 6.74096 26.9205 6.3163 27.3769 6.00985C27.8333 5.70339 28.4524 5.55017 29.2342 5.55017H30.4014V4.98804C30.4014 4.65532 30.296 4.39177 30.0851 4.19739C29.8742 4.00301 29.576 3.90582 29.1905 3.90582C28.8451 3.90582 28.5642 3.99075 28.3478 4.16062C28.1315 4.33048 28.0233 4.53449 28.0233 4.77265H26.9978L26.9869 4.74113C26.9651 4.32785 27.1678 3.9496 27.5951 3.60637C28.0224 3.26314 28.5742 3.09153 29.2505 3.09153C29.9196 3.09153 30.4578 3.25526 30.8651 3.58273C31.2724 3.9102 31.476 4.38214 31.476 4.99855V7.73562C31.476 7.93876 31.4869 8.13488 31.5087 8.32401C31.5305 8.51314 31.5705 8.69876 31.6287 8.88088H30.5214ZM28.7378 8.12438C29.1269 8.12438 29.4778 8.02807 29.7905 7.83544C30.1033 7.64281 30.3069 7.42216 30.4014 7.1735V6.24888H29.196C28.7633 6.24888 28.4169 6.35395 28.1569 6.56409C27.8969 6.77423 27.7669 7.02114 27.7669 7.30484C27.7669 7.557 27.8487 7.75663 28.0124 7.90373C28.176 8.05083 28.4178 8.12438 28.7378 8.12438ZM34.3123 5.56593V8.88088H33.2378V1.23705H36.1123C36.9814 1.23705 37.645 1.42267 38.1032 1.79392C38.5614 2.16517 38.7905 2.70452 38.7905 3.41199C38.7905 3.80426 38.6841 4.14573 38.4714 4.43643C38.2587 4.72712 37.9487 4.95827 37.5414 5.12989C37.9778 5.26648 38.2914 5.488 38.4823 5.79446C38.6732 6.10091 38.7687 6.48003 38.7687 6.93184V7.65156C38.7687 7.88972 38.7959 8.10336 38.8505 8.29249C38.905 8.48162 38.9996 8.63572 39.1341 8.7548V8.88088H38.0269C37.885 8.7618 37.7941 8.58669 37.7541 8.35553C37.7141 8.12438 37.6941 7.88622 37.6941 7.64106V6.94234C37.6941 6.52907 37.5687 6.19635 37.3178 5.94418C37.0669 5.69201 36.7305 5.56593 36.3087 5.56593H34.3123ZM34.3123 4.75164H36.0032C36.6105 4.75164 37.0478 4.64044 37.315 4.41804C37.5823 4.19564 37.716 3.85679 37.716 3.40149C37.716 2.9707 37.5859 2.63711 37.326 2.4007C37.0659 2.16429 36.6614 2.04609 36.1123 2.04609H34.3123V4.75164ZM42.8868 8.99121C42.065 8.99121 41.4114 8.72766 40.9259 8.20055C40.4405 7.67345 40.1978 6.98963 40.1978 6.14907V5.91791C40.1978 5.10887 40.4478 4.43555 40.9478 3.89794C41.4478 3.36033 42.0396 3.09153 42.7232 3.09153C43.5196 3.09153 44.1214 3.32268 44.5286 3.78499C44.9359 4.2473 45.1395 4.86371 45.1395 5.63422V6.2804H41.3105L41.2941 6.30667C41.305 6.85304 41.4487 7.30221 41.725 7.65419C42.0014 8.00618 42.3886 8.18217 42.8868 8.18217C43.2505 8.18217 43.5696 8.13226 43.8441 8.03244C44.1186 7.93262 44.3559 7.79516 44.5559 7.62004L44.9759 8.29249C44.765 8.49212 44.4868 8.65848 44.1414 8.79157C43.7959 8.92466 43.3777 8.99121 42.8868 8.99121ZM42.7232 3.90582C42.3632 3.90582 42.0559 4.05204 41.8014 4.34449C41.5468 4.63694 41.3905 5.0038 41.3323 5.4451L41.3432 5.47137H44.065V5.33477C44.065 4.9285 43.9523 4.58878 43.7268 4.3156C43.5014 4.04241 43.1668 3.90582 42.7232 3.90582ZM49.9722 8.88088C49.9359 8.70927 49.9077 8.55779 49.8877 8.42646C49.8677 8.29512 49.8559 8.16291 49.8522 8.02982C49.6522 8.303 49.3913 8.53152 49.0695 8.7154C48.7477 8.89927 48.4013 8.99121 48.0304 8.99121C47.4159 8.99121 46.9477 8.83973 46.6259 8.53678C46.3041 8.23383 46.1432 7.81618 46.1432 7.28382C46.1432 6.74096 46.3714 6.3163 46.8277 6.00985C47.2841 5.70339 47.9032 5.55017 48.685 5.55017H49.8522V4.98804C49.8522 4.65532 49.7468 4.39177 49.5359 4.19739C49.325 4.00301 49.0268 3.90582 48.6413 3.90582C48.2959 3.90582 48.015 3.99075 47.7986 4.16062C47.5823 4.33048 47.4741 4.53449 47.4741 4.77265H46.4486L46.4377 4.74113C46.4159 4.32785 46.6186 3.9496 47.0459 3.60637C47.4732 3.26314 48.025 3.09153 48.7013 3.09153C49.3704 3.09153 49.9086 3.25526 50.3159 3.58273C50.7231 3.9102 50.9268 4.38214 50.9268 4.99855V7.73562C50.9268 7.93876 50.9377 8.13488 50.9595 8.32401C50.9813 8.51314 51.0213 8.69876 51.0795 8.88088H49.9722ZM48.1886 8.12438C48.5777 8.12438 48.9286 8.02807 49.2413 7.83544C49.5541 7.64281 49.7577 7.42216 49.8522 7.1735V6.24888H48.6468C48.2141 6.24888 47.8677 6.35395 47.6077 6.56409C47.3477 6.77423 47.2177 7.02114 47.2177 7.30484C47.2177 7.557 47.2995 7.75663 47.4632 7.90373C47.6268 8.05083 47.8686 8.12438 48.1886 8.12438ZM52.2413 6.14381C52.2413 5.2297 52.444 4.49247 52.8495 3.93209C53.255 3.37172 53.8231 3.09153 54.554 3.09153C54.8995 3.09153 55.2059 3.15282 55.4731 3.2754C55.7404 3.39798 55.9686 3.5766 56.1577 3.81126V0.685432H57.2322V8.88088H56.354L56.2286 8.18217C56.0359 8.44835 55.7995 8.64973 55.5195 8.78632C55.2395 8.92291 54.914 8.99121 54.5431 8.99121C53.8231 8.99121 53.2595 8.73992 52.8522 8.23733C52.445 7.73474 52.2413 7.07368 52.2413 6.25413V6.14381ZM53.3159 6.25413C53.3159 6.82852 53.4377 7.2882 53.6813 7.63318C53.925 7.97816 54.3031 8.15065 54.8159 8.15065C55.1359 8.15065 55.4049 8.0806 55.6231 7.94051C55.8413 7.80041 56.0195 7.60429 56.1577 7.35212V4.6991C56.0195 4.46444 55.8404 4.27795 55.6204 4.1396C55.4004 4.00126 55.1359 3.93209 54.8268 3.93209C54.3104 3.93209 53.9295 4.13697 53.684 4.54675C53.4386 4.95652 53.3159 5.48887 53.3159 6.14381V6.25413ZM62.2667 7.37313C62.2667 7.14548 62.1767 6.9581 61.9967 6.811C61.8167 6.66391 61.4758 6.53607 60.974 6.4275C60.2576 6.2769 59.7186 6.07289 59.3567 5.81547C58.9949 5.55804 58.814 5.20694 58.814 4.76214C58.814 4.29983 59.0177 3.90583 59.4249 3.58011C59.8322 3.25439 60.3631 3.09153 61.0176 3.09153C61.7049 3.09153 62.2513 3.26139 62.6567 3.60112C63.0622 3.94085 63.2558 4.35412 63.2376 4.84095L63.2267 4.87247H62.2013C62.2013 4.6238 62.0931 4.40053 61.8767 4.20265C61.6604 4.00476 61.374 3.90582 61.0176 3.90582C60.6358 3.90582 60.3522 3.98638 60.1667 4.14748C59.9813 4.30859 59.8886 4.50297 59.8886 4.73062C59.8886 4.95477 59.9704 5.13164 60.134 5.26123C60.2976 5.39081 60.6304 5.50639 61.1322 5.60795C61.8776 5.76206 62.4322 5.97132 62.7958 6.23575C63.1595 6.50017 63.3413 6.85478 63.3413 7.29958C63.3413 7.80392 63.1294 8.21194 62.7058 8.52365C62.2822 8.83535 61.7285 8.99121 61.0449 8.99121C60.2922 8.99121 59.6995 8.80733 59.2667 8.43959C58.834 8.07184 58.6286 7.64281 58.6504 7.15248L58.6613 7.12096H59.6867C59.7049 7.48871 59.8467 7.75751 60.1122 7.92737C60.3776 8.09724 60.6885 8.18217 61.0449 8.18217C61.4267 8.18217 61.7258 8.10774 61.9422 7.95889C62.1585 7.81004 62.2667 7.61479 62.2667 7.37313ZM66.4722 6.23312L66.6194 7.18926L66.6522 7.19451L66.8649 6.23312L68.3212 1.2318H69.2703L70.7376 6.23312L70.9558 7.21552H70.9885L71.1467 6.23312L72.3303 1.2318H73.4048L71.4903 8.88088H70.5303L68.9649 3.57485L68.8231 2.88665H68.7903L68.654 3.57485L67.0612 8.88088H66.1013L64.1922 1.2318H65.2613L66.4722 6.23312ZM77.9921 8.88088C77.9557 8.70927 77.9276 8.55779 77.9076 8.42646C77.8876 8.29512 77.8757 8.16291 77.8721 8.02982C77.6721 8.303 77.4112 8.53152 77.0894 8.7154C76.7676 8.89927 76.4212 8.99121 76.0503 8.99121C75.4357 8.99121 74.9676 8.83973 74.6458 8.53678C74.3239 8.23383 74.163 7.81618 74.163 7.28382C74.163 6.74096 74.3912 6.3163 74.8476 6.00985C75.3039 5.70339 75.923 5.55017 76.7048 5.55017H77.8721V4.98804C77.8721 4.65532 77.7666 4.39177 77.5557 4.19739C77.3448 4.00301 77.0466 3.90582 76.6612 3.90582C76.3157 3.90582 76.0348 3.99075 75.8185 4.16062C75.6021 4.33048 75.4939 4.53449 75.4939 4.77265H74.4685L74.4576 4.74113C74.4358 4.32785 74.6385 3.9496 75.0658 3.60637C75.493 3.26314 76.0448 3.09153 76.7212 3.09153C77.3903 3.09153 77.9285 3.25526 78.3357 3.58273C78.743 3.9102 78.9466 4.38214 78.9466 4.99855V7.73562C78.9466 7.93876 78.9575 8.13488 78.9794 8.32401C79.0012 8.51314 79.0412 8.69876 79.0994 8.88088H77.9921ZM76.2085 8.12438C76.5976 8.12438 76.9485 8.02807 77.2612 7.83544C77.5739 7.64281 77.7776 7.42216 77.8721 7.1735V6.24888H76.6666C76.2339 6.24888 75.8876 6.35395 75.6276 6.56409C75.3676 6.77423 75.2376 7.02114 75.2376 7.30484C75.2376 7.557 75.3194 7.75663 75.483 7.90373C75.6467 8.05083 75.8885 8.12438 76.2085 8.12438ZM82.2303 6.77423L82.4212 7.48871H82.4539L83.9048 3.1966H85.0993L82.6175 9.75296C82.4684 10.1347 82.2548 10.4674 81.9766 10.7511C81.6984 11.0348 81.323 11.1767 80.8503 11.1767C80.763 11.1767 80.6521 11.167 80.5175 11.1478C80.383 11.1285 80.2794 11.1101 80.2066 11.0926L80.3157 10.2783C80.2939 10.2748 80.3585 10.2783 80.5094 10.2888C80.6603 10.2993 80.7557 10.3046 80.7957 10.3046C81.0248 10.3046 81.2121 10.2065 81.3575 10.0104C81.503 9.81425 81.6248 9.59711 81.723 9.35895L81.9793 8.76531L79.7866 3.1966H80.9866L82.2303 6.77423ZM91.0557 8.88088H85.9066V8.17166L88.5084 5.38731C88.9739 4.88647 89.2893 4.48896 89.4548 4.19476C89.6202 3.90057 89.7029 3.59937 89.7029 3.29116C89.7029 2.90941 89.5875 2.58807 89.3566 2.32715C89.1257 2.06623 88.8193 1.93576 88.4375 1.93576C87.8884 1.93576 87.4839 2.07148 87.2239 2.34291C86.9639 2.61434 86.8339 2.99521 86.8339 3.48554H85.803L85.7921 3.45402C85.7739 2.79558 86.0011 2.24222 86.4739 1.79392C86.9466 1.34562 87.6011 1.12147 88.4375 1.12147C89.1502 1.12147 89.7184 1.32198 90.142 1.723C90.5657 2.12401 90.7775 2.63448 90.7775 3.25439C90.7775 3.67117 90.6493 4.08882 90.3929 4.50735C90.1366 4.92588 89.7775 5.37505 89.3157 5.85487L87.2266 8.04558L87.2375 8.07184H91.0557V8.88088ZM98.5393 8.88088H97.4647L93.6411 2.96545L93.6084 2.97595V8.88088H92.5338V1.2318H93.6084L97.432 7.13672L97.4647 7.12622V1.2318H98.5393V8.88088ZM102.75 8.99121C101.928 8.99121 101.275 8.72766 100.789 8.20055C100.304 7.67345 100.061 6.98963 100.061 6.14907V5.91791C100.061 5.10887 100.311 4.43555 100.811 3.89794C101.311 3.36033 101.903 3.09153 102.587 3.09153C103.383 3.09153 103.985 3.32268 104.392 3.78499C104.799 4.2473 105.003 4.86371 105.003 5.63422V6.2804H101.174L101.157 6.30667C101.168 6.85304 101.312 7.30221 101.588 7.65419C101.865 8.00618 102.252 8.18217 102.75 8.18217C103.114 8.18217 103.433 8.13226 103.707 8.03244C103.982 7.93262 104.219 7.79516 104.419 7.62004L104.839 8.29249C104.628 8.49212 104.35 8.65848 104.005 8.79157C103.659 8.92466 103.241 8.99121 102.75 8.99121ZM102.587 3.90582C102.227 3.90582 101.919 4.05204 101.665 4.34449C101.41 4.63694 101.254 5.0038 101.196 5.4451L101.207 5.47137H103.928V5.33477C103.928 4.9285 103.816 4.58878 103.59 4.3156C103.365 4.04241 103.03 3.90582 102.587 3.90582ZM107.719 6.811L107.845 7.49921H107.877L108.03 6.811L109.208 3.1966H110.07L111.254 6.811L111.423 7.57802H111.456L111.614 6.811L112.541 3.1966H113.61L111.897 8.88088H111.03L109.89 5.41883L109.645 4.45219L109.612 4.45744L109.377 5.41883L108.254 8.88088H107.386L105.674 3.1966H106.743L107.719 6.811ZM118.094 7.37313C118.094 7.14548 118.004 6.9581 117.824 6.811C117.644 6.66391 117.303 6.53607 116.801 6.4275C116.085 6.2769 115.546 6.07289 115.184 5.81547C114.822 5.55804 114.641 5.20694 114.641 4.76214C114.641 4.29983 114.845 3.90583 115.252 3.58011C115.659 3.25439 116.19 3.09153 116.845 3.09153C117.532 3.09153 118.078 3.26139 118.484 3.60112C118.889 3.94085 119.083 4.35412 119.065 4.84095L119.054 4.87247H118.028C118.028 4.6238 117.92 4.40053 117.704 4.20265C117.487 4.00476 117.201 3.90582 116.845 3.90582C116.463 3.90582 116.179 3.98638 115.994 4.14748C115.808 4.30859 115.716 4.50297 115.716 4.73062C115.716 4.95477 115.797 5.13164 115.961 5.26123C116.125 5.39081 116.457 5.50639 116.959 5.60795C117.705 5.76206 118.259 5.97132 118.623 6.23575C118.986 6.50017 119.168 6.85478 119.168 7.29958C119.168 7.80392 118.956 8.21194 118.533 8.52365C118.109 8.83535 117.556 8.99121 116.872 8.99121C116.119 8.99121 115.526 8.80733 115.094 8.43959C114.661 8.07184 114.456 7.64281 114.477 7.15248L114.488 7.12096H115.514C115.532 7.48871 115.674 7.75751 115.939 7.92737C116.205 8.09724 116.516 8.18217 116.872 8.18217C117.254 8.18217 117.553 8.10774 117.769 7.95889C117.986 7.81004 118.094 7.61479 118.094 7.37313Z" fill="white"/>
</svg>
