<svg width="143" height="30" viewBox="0 0 143 30" fill="none" xmlns="http://www.w3.org/2000/svg">
<path fill-rule="evenodd" clip-rule="evenodd" d="M15.932 6.78512C15.932 6.26736 16.0644 5.86583 16.3293 5.58054C16.7849 5.11561 17.2882 4.88315 17.8392 4.88315C18.3689 4.88315 18.761 5.02051 19.0153 5.29524C19.4709 5.76017 19.6987 6.25679 19.6987 6.78512V17.769C19.6987 19.1744 19.2113 20.305 18.2365 21.1609C17.2723 21.9956 16.0379 22.413 14.5334 22.413C12.8169 22.413 11.5243 21.8847 10.6554 20.828C10.38 20.5956 10.1363 20.5956 9.92436 20.828C9.03433 21.8847 7.7417 22.413 6.04642 22.413C4.55245 22.413 3.32339 21.9903 2.3592 21.145C1.36322 20.2786 0.865234 19.1374 0.865234 17.7215V6.78512C0.865234 6.26736 0.997677 5.86583 1.26256 5.58054C1.71817 5.11561 2.22145 4.88315 2.77242 4.88315C3.30219 4.88315 3.69422 5.02051 3.94851 5.29524C4.40412 5.76017 4.63192 6.25679 4.63192 6.78512V17.8641C4.63192 18.403 4.81204 18.8177 5.17229 19.1083C5.53254 19.3989 5.97489 19.5442 6.49937 19.5442C7.02385 19.5442 7.4715 19.4042 7.84235 19.1242C8.21319 18.8442 8.39861 18.4241 8.39861 17.8641V6.80097C8.39861 6.28321 8.53105 5.88168 8.79594 5.59639C9.25155 5.13146 9.75483 4.899 10.3058 4.899C10.8356 4.899 11.2276 5.03108 11.4819 5.29524C11.9375 5.77074 12.1653 6.27264 12.1653 6.80097V17.8641C12.1653 18.4241 12.3481 18.8442 12.7136 19.1242C13.0792 19.4042 13.5268 19.5442 14.0566 19.5442C14.5864 19.5442 15.0314 19.3989 15.3916 19.1083C15.7519 18.8177 15.932 18.403 15.932 17.8641V6.78512ZM26.3579 6.64247C26.3579 6.00848 26.6546 5.56469 27.2479 5.31109C27.4175 5.23712 27.6029 5.20014 27.8042 5.20014H31.555C32.8476 5.20014 33.9549 5.65978 34.8767 6.57907C35.7985 7.49836 36.2594 8.60255 36.2594 9.89167V20.5586C36.2594 21.3616 35.8779 21.9269 35.1151 22.2545C34.882 22.3602 34.6277 22.413 34.3522 22.413C34.0767 22.413 33.841 22.3681 33.6449 22.2783C33.4489 22.1885 33.2821 22.0854 33.1443 21.9692C33.0278 21.8635 32.9112 21.713 32.7947 21.5175C32.6781 21.322 32.5881 21.1767 32.5245 21.0816C32.4609 20.9865 32.3602 20.939 32.2225 20.939C32.0848 20.939 31.9735 20.9865 31.8887 21.0816L31.6345 21.3511C30.9246 22.059 30.0928 22.413 29.1392 22.413C28.0055 22.413 27.0254 21.9481 26.199 21.0182C25.3725 20.0989 24.9593 19 24.9593 17.7215V15.5342C24.9593 14.2451 25.4202 13.1409 26.342 12.2216C27.2532 11.3129 28.3605 10.8585 29.6637 10.8585H32.4927V9.93922C32.4927 9.4109 32.3602 9.01465 32.0954 8.75049C31.6292 8.28556 31.1365 8.0531 30.6173 8.0531H27.8042C27.4122 8.0531 27.1102 7.95272 26.8983 7.75196C26.538 7.41383 26.3579 7.044 26.3579 6.64247ZM28.726 17.6898C28.726 18.2287 28.8584 18.6249 29.1233 18.8785C29.5895 19.3223 30.0186 19.5442 30.4107 19.5442C30.8027 19.5442 31.1126 19.5072 31.3404 19.4332C31.5682 19.3593 31.7669 19.2536 31.9364 19.1162C32.3073 18.8204 32.4927 18.4294 32.4927 17.9434V13.6956H30.6173C30.0769 13.6956 29.6743 13.8277 29.4094 14.0919C28.9538 14.5462 28.726 15.0376 28.726 15.5659V17.6898ZM49.8878 5.03372C50.1156 4.93334 50.3593 4.88315 50.6189 4.88315C50.8785 4.88315 51.1248 4.9307 51.3579 5.02579C51.591 5.12089 51.7923 5.25297 51.9618 5.42204C52.3327 5.79187 52.5181 6.23037 52.5181 6.73757V24.9173C52.5181 26.2169 52.0572 27.3211 51.1354 28.2299C50.1924 29.1491 49.0746 29.6088 47.7819 29.6088H44.9688C44.5662 29.6088 44.2245 29.4714 43.9437 29.1967C43.663 28.922 43.5226 28.5838 43.5226 28.1823C43.5226 27.7808 43.663 27.44 43.9437 27.16C44.2245 26.88 44.5662 26.74 44.9688 26.74H46.8442C47.3846 26.74 47.7872 26.6079 48.0521 26.3437C48.5077 25.8894 48.7355 25.4033 48.7355 24.8856V21.4462C48.7355 21.2454 48.6799 21.1107 48.5687 21.042C48.4574 20.9733 48.3488 20.939 48.2428 20.939C48.1369 20.939 48.0415 20.9865 47.9568 21.0816L47.6866 21.3352C46.9661 22.0537 46.1343 22.413 45.1913 22.413C44.047 22.413 43.0988 21.9481 42.3465 21.0182C41.5942 20.0989 41.2181 19 41.2181 17.7215V6.73757C41.2181 5.93451 41.5995 5.36921 42.3624 5.04164C42.5849 4.93598 42.8259 4.88315 43.0855 4.88315C43.3451 4.88315 43.5914 4.9307 43.8245 5.02579C44.0576 5.12089 44.2589 5.25297 44.4285 5.42204C44.7993 5.79187 44.9847 6.23037 44.9847 6.73757V17.6739C44.9847 18.1917 45.1172 18.5879 45.3821 18.8626C45.8271 19.3276 46.2456 19.56 46.6376 19.56C47.0297 19.56 47.3396 19.5204 47.5674 19.4412C47.7952 19.3619 47.9991 19.2483 48.1793 19.1004C48.5501 18.7834 48.7355 18.3713 48.7355 17.8641V6.73757C48.7355 6.21981 48.8706 5.83149 49.1408 5.57261C49.411 5.31373 49.66 5.1341 49.8878 5.03372ZM63.3573 0.55616C65.0526 0.55616 66.3929 1.1426 67.3783 2.31548C68.2577 3.37214 68.6974 4.69823 68.6974 6.29378C68.6974 8.06896 68.0511 9.7543 66.7584 11.3499C66.3664 11.8253 65.9426 12.3167 65.487 12.8239L62.9599 15.6451C62.3242 16.3425 61.9216 16.8709 61.7521 17.2301C61.466 17.8218 61.3229 18.4875 61.3229 19.2272H67.2352C67.6061 19.2272 67.8921 19.3276 68.0934 19.5283C68.4537 19.8876 68.6338 20.2653 68.6338 20.6616C68.6338 21.0578 68.4987 21.396 68.2285 21.676C67.9583 21.956 67.6272 22.096 67.2352 22.096H59.4317C58.9125 22.096 58.5151 21.9586 58.2397 21.6839C57.7841 21.2295 57.5563 20.7329 57.5563 20.194V20.1623C57.5563 18.5351 57.7337 17.3199 58.0887 16.5169C58.4436 15.7138 58.8542 14.9979 59.3204 14.3692C59.7866 13.7405 60.3905 13.0246 61.1322 12.2216L63.8976 9.22598C64.2367 8.86672 64.5201 8.40444 64.7479 7.83913C64.9757 7.27382 65.0896 6.73493 65.0896 6.22245C65.0896 5.70997 65.0181 5.28203 64.8751 4.93862C64.732 4.59521 64.544 4.31256 64.3109 4.09066C63.8447 3.64686 63.2937 3.42497 62.658 3.42497H59.5429C59.1615 3.42497 58.8648 3.3193 58.6529 3.10797C58.2926 2.74871 58.1125 2.3736 58.1125 1.98264C58.1125 1.59168 58.2529 1.25619 58.5337 0.976179C58.8145 0.696165 59.1509 0.55616 59.5429 0.55616H63.3573ZM76.35 22.2624C76.1222 22.3628 75.8785 22.413 75.6189 22.413C75.3593 22.413 75.1156 22.3654 74.8878 22.2703C74.66 22.1752 74.4613 22.0432 74.2918 21.8741C73.9209 21.5043 73.7355 21.0658 73.7355 20.5586V6.78512C73.7355 6.26736 73.8733 5.86583 74.1487 5.58054C74.5938 5.11561 75.0202 4.88315 75.4282 4.88315C75.8361 4.88315 76.138 4.92805 76.3341 5.01787C76.5301 5.10769 76.697 5.21071 76.8347 5.32694C77.036 5.49601 77.1764 5.66771 77.2559 5.84206C77.3353 6.01641 77.4069 6.14584 77.4704 6.23038C77.534 6.31491 77.632 6.35718 77.7644 6.35718C77.8969 6.35718 78.0055 6.31227 78.0903 6.22245C78.175 6.13264 78.3128 5.99263 78.5035 5.80243C79.1392 5.18957 79.8359 4.88315 80.5934 4.88315C81.351 4.88315 81.9841 5.0073 82.4927 5.25562C83.0013 5.50393 83.441 5.8447 83.8118 6.27793C84.6277 7.19722 85.0356 8.29612 85.0356 9.57468V20.5586C85.0356 21.3616 84.6594 21.9269 83.9072 22.2545C83.6741 22.3602 83.4277 22.413 83.1681 22.413C82.9085 22.413 82.6622 22.3654 82.4291 22.2703C82.196 22.1752 81.9947 22.0432 81.8252 21.8741C81.4543 21.5043 81.2689 21.0658 81.2689 20.5586V9.62223C81.2689 9.10447 81.1418 8.70823 80.8875 8.4335C80.4319 7.96857 79.9445 7.73611 79.4253 7.73611C78.5777 7.73611 77.9896 8.06366 77.6611 8.71879C77.5552 8.93012 77.5022 9.16787 77.5022 9.43203V20.5586C77.5022 21.0763 77.3671 21.4646 77.0969 21.7235C76.8267 21.9824 76.5778 22.162 76.35 22.2624ZM99.4666 19.6551C99.7421 19.9404 99.8798 20.2812 99.8798 20.6774C99.8798 21.0737 99.7421 21.4092 99.4666 21.6839C99.1911 21.9586 98.8521 22.096 98.4494 22.096H94.6986C93.406 22.096 92.2988 21.6364 91.377 20.7171C90.4552 19.7978 89.9943 18.6936 89.9943 17.4045V9.62223C89.9943 8.18517 90.4816 7.03872 91.4564 6.18283C92.4736 5.31637 93.8722 4.88315 95.6522 4.88315C97.4111 4.88315 98.7991 5.31637 99.8162 6.18283C100.802 7.04929 101.294 8.20631 101.294 9.65393V14.0919C101.294 14.6202 101.162 15.0164 100.897 15.2806C100.441 15.735 99.9434 15.9621 99.403 15.9621H93.7609V17.3728C93.7609 17.9117 93.8934 18.3079 94.1583 18.5615C94.6245 19.0053 95.1172 19.2272 95.6363 19.2272H98.4494C98.8521 19.2272 99.1911 19.3698 99.4666 19.6551ZM97.5276 9.62223C97.5276 9.0939 97.3952 8.69766 97.1303 8.4335C96.6641 7.96857 96.1714 7.73611 95.6522 7.73611C95.1225 7.73611 94.7198 7.87347 94.4444 8.1482C93.9887 8.60256 93.7609 9.0939 93.7609 9.62223V13.1884H97.5276V9.62223ZM121.622 6.78512C121.622 6.26736 121.754 5.86583 122.019 5.58054C122.475 5.11561 122.978 4.88315 123.529 4.88315C124.059 4.88315 124.451 5.02051 124.705 5.29524C125.161 5.76017 125.388 6.25679 125.388 6.78512V17.769C125.388 19.1744 124.901 20.305 123.926 21.1609C122.962 21.9956 121.728 22.413 120.223 22.413C118.507 22.413 117.214 21.8847 116.345 20.828C116.07 20.5956 115.826 20.5956 115.614 20.828C114.724 21.8847 113.431 22.413 111.736 22.413C110.242 22.413 109.013 21.9903 108.049 21.145C107.053 20.2786 106.555 19.1374 106.555 17.7215V6.78512C106.555 6.26736 106.687 5.86583 106.952 5.58054C107.408 5.11561 107.911 4.88315 108.462 4.88315C108.992 4.88315 109.384 5.02051 109.638 5.29524C110.094 5.76017 110.322 6.25679 110.322 6.78512V17.8641C110.322 18.403 110.502 18.8177 110.862 19.1083C111.222 19.3989 111.665 19.5442 112.189 19.5442C112.714 19.5442 113.161 19.4042 113.532 19.1242C113.903 18.8442 114.088 18.4241 114.088 17.8641V6.80097C114.088 6.28321 114.221 5.88168 114.486 5.59639C114.941 5.13146 115.445 4.899 115.996 4.899C116.525 4.899 116.917 5.03108 117.172 5.29524C117.627 5.77074 117.855 6.27264 117.855 6.80097V17.8641C117.855 18.4241 118.038 18.8442 118.403 19.1242C118.769 19.4042 119.217 19.5442 119.746 19.5442C120.276 19.5442 120.721 19.3989 121.081 19.1083C121.442 18.8177 121.622 18.403 121.622 17.8641V6.78512ZM131.714 21.6839C131.428 21.4092 131.285 21.1239 131.285 20.828C131.285 20.5322 131.325 20.297 131.404 20.1227C131.483 19.9484 131.592 19.7925 131.73 19.6551C132.016 19.3698 132.35 19.2272 132.731 19.2272H136.243C136.89 19.2272 137.409 19.0449 137.801 18.6804C138.193 18.3158 138.389 17.8641 138.389 17.3252C138.389 16.7863 138.241 16.3505 137.944 16.0176C137.647 15.6848 137.282 15.4497 136.847 15.3123L133.987 14.5198C133.001 14.2239 132.217 13.6745 131.634 12.8714C131.041 12.0578 130.744 11.1966 130.744 10.2879C130.744 9.37919 130.879 8.62898 131.15 8.03725C131.42 7.44552 131.783 6.93834 132.238 6.51567C133.181 5.63865 134.347 5.20014 135.735 5.20014H139.613C140.015 5.20014 140.349 5.34015 140.614 5.62016C140.879 5.90018 141.011 6.24094 141.011 6.64247C141.011 7.044 140.879 7.37948 140.614 7.64893C140.349 7.91838 140.015 8.0531 139.613 8.0531H136.037C135.496 8.0531 135.075 8.2116 134.773 8.52859C134.471 8.84559 134.32 9.2207 134.32 9.65393C134.32 10.3302 134.697 10.8374 135.449 11.1755L138.564 12.0789C140.238 12.639 141.35 13.6956 141.901 15.2489C142.082 15.7772 142.172 16.3848 142.172 17.0716C142.172 17.7584 142.031 18.4136 141.75 19.037C141.47 19.6604 141.096 20.1993 140.63 20.6537C139.645 21.6152 138.484 22.096 137.149 22.096H132.731C132.339 22.096 132 21.9586 131.714 21.6839Z" fill="white"/>
</svg>
